<?xml version="1.0" encoding="UTF-8"?>
<svg id="Layer_2" data-name="Layer 2" xmlns="http://www.w3.org/2000/svg" viewBox="0 0 510.03 109.64">
  <defs>
    <style>
      .cls-1 {
        stroke: #4f4db4;
        stroke-miterlimit: 10;
        stroke-width: 4px;
      }

      .cls-1, .cls-2 {
        fill: #4f4db4;
      }

      .cls-2 {
        font-family: LilitaOne, 'Lilita One';
        font-size: 75.13px;
      }
    </style>
  </defs>
  <g id="Layer_1-2" data-name="Layer 1">
    <text class="cls-2" transform="translate(105.81 93.12)"><tspan x="0" y="0">MOMENTOS</tspan></text>
    <path class="cls-1" d="M21.07,2c.62.17,1.27.18,1.91.3,8,1.45,14.23,8.18,14.7,16.38.28.08.16-.26.18-.42.63-8.04,6.76-14.55,14.64-15.96.63-.11,1.29-.13,1.91-.3h2.38l4.31.87c17.19,5.69,15.99,30.52-1.71,34.42l-2.83.44c2.34-.09,4.46.01,6.63.93,3.89,1.64,6.66,5.22,7.18,9.43l19.1-8.46c3.85-1.19,7.53,1.41,7.81,5.42v45.02c-.4,3.89-3.68,6.26-7.53,5.38l-19.38-8.54c-.63,5.18-4.66,9.24-9.74,10.21-15.84.35-31.73.05-47.58.15-4.42-.41-8.3-3.12-10.04-7.22-.48-1.13-.73-2.29-.97-3.5v-38.1c.21-.75.28-1.54.51-2.29,1.23-4.11,5.81-8.43,10.26-8.43h6.13l-2.84-.44c-6.75-1.41-12.14-6.8-13.63-13.51l-.44-2.72c.04-.78-.05-1.6,0-2.38C2.62,10.03,9.73,2.6,18.5,2.11l.19-.11h2.38ZM18.78,7.99c-9.08.83-13.85,11.17-8.64,18.7,4.89,7.07,15.58,6.66,19.95-.72,4.97-8.37-1.66-18.87-11.31-17.98ZM54.49,7.99c-9.08.83-13.85,11.17-8.64,18.7,4.89,7.07,15.58,6.66,19.95-.72,4.97-8.37-1.66-18.87-11.31-17.98ZM20.83,37.72h33.81l-2.84-.44c-8.07-1.89-12.84-7.74-13.95-15.82-.02-.18-.02-.37-.24-.41-.28,7.8-6.36,14.68-13.95,16.23l-2.84.44ZM13.18,43.71c-2.79.38-4.9,2.61-5.21,5.39v36.68c.29,3.05,2.59,5.31,5.65,5.54h45.25c3.06-.23,5.36-2.49,5.65-5.54v-36.56c-.26-2.95-2.58-5.28-5.54-5.54l-45.8.04ZM91.3,45.34l-20.84,9.34.03,25.76,20.81,9.19v-44.29Z"/>
  </g>
</svg>